<svg width="72" height="72" viewBox="0 0 72 72" fill="none" xmlns="http://www.w3.org/2000/svg">
<g id="iCON 7 1" clip-path="url(#clip0_501_1898)">
<g id="Layer 2">
<g id="Layer 1">
<path id="Vector" d="M56.0513 30.3158C55.0438 26.842 53.2109 23.6635 50.7089 21.0516C48.2069 18.4396 45.1101 16.4717 41.6829 15.3158C38.2969 14.3302 34.7379 14.0881 31.2496 14.6059C27.7613 15.1236 24.4261 16.3892 21.4723 18.3158C21.2293 18.5594 20.9245 18.7322 20.5907 18.8156C20.2569 18.8991 19.9067 18.89 19.5776 18.7895C18.9142 18.5746 18.3164 18.1942 17.8408 17.6843C17.4945 17.0595 17.3825 16.3316 17.525 15.6316C17.6154 15.2956 17.7743 14.982 17.9917 14.7103C18.2091 14.4386 18.4802 14.2147 18.7881 14.0527C27.1566 9.15794 35.3671 7.89478 43.2618 10.4211C47.1486 11.7139 50.6971 13.8594 53.6476 16.7007C56.5981 19.5419 58.8759 23.0069 60.3144 26.8421H70.8934C68.7302 18.3095 63.5158 10.865 56.2359 5.91637C48.9561 0.96769 40.1154 -1.14225 31.3853 -0.0145405C22.6552 1.11317 14.6409 5.40039 8.85751 12.0365C3.07413 18.6727 -0.0774402 27.1978 -0.00133884 36C-0.00133884 37.4211 0.156556 38.6843 0.156556 40.1053H13.5776C14.0902 40.0762 14.5983 40.2145 15.0255 40.4993C15.4527 40.7841 15.7757 41.1999 15.946 41.6843C16.9773 45.1461 18.8185 48.3124 21.3172 50.9209C23.8159 53.5295 26.9001 55.5051 30.3144 56.6843C33.7004 57.6698 37.2595 57.912 40.7478 57.3942C44.2361 56.8764 47.5713 55.6109 50.525 53.6843C50.768 53.4407 51.0728 53.2679 51.4066 53.1845C51.7404 53.101 52.0906 53.11 52.4197 53.2106C53.0831 53.4255 53.6809 53.8059 54.1566 54.3158C54.5028 54.9406 54.6148 55.6685 54.4723 56.3685C54.3819 56.7045 54.223 57.0181 54.0056 57.2898C53.7883 57.5615 53.5171 57.7854 53.2092 57.9474C48.4497 61.1499 42.8406 62.8547 37.1039 62.8421C34.2686 62.8208 31.4508 62.3955 28.7355 61.579C24.8324 60.3171 21.2682 58.1824 18.3135 55.3371C15.3587 52.4918 13.0911 49.0106 11.6829 45.1579H1.26182C3.54443 53.5503 8.78806 60.8326 16.0234 65.6587C23.2588 70.4848 31.9967 72.5283 40.622 71.4117C49.2472 70.295 57.1766 66.0936 62.9444 59.5841C68.7122 53.0745 71.9285 44.697 71.9986 36C72.028 34.6823 71.9753 33.3639 71.8408 32.0527H58.5776C58.0392 32.0171 57.5204 31.837 57.0758 31.5313C56.6312 31.2257 56.2773 30.8058 56.0513 30.3158Z" fill="#100A42"/>
<path id="Vector_2" d="M36.1507 51.7492C39.2591 51.7193 42.2892 50.7702 44.8593 49.0215C47.4294 47.2728 49.4245 44.8027 50.5934 41.9222C51.7623 39.0418 52.0527 35.8799 51.4279 32.8347C50.8032 29.7895 49.2914 26.9973 47.0828 24.8098C44.8742 22.6222 42.0677 21.1372 39.0167 20.5416C35.9657 19.9461 32.8067 20.2667 29.9375 21.4631C27.0684 22.6595 24.6175 24.6782 22.8935 27.2649C21.1694 29.8516 20.2494 32.8906 20.2493 35.9992C20.2492 38.0803 20.6615 40.1408 21.4625 42.0616C22.2635 43.9824 23.4371 45.7255 24.9157 47.19C26.3943 48.6545 28.1485 49.8115 30.0769 50.594C32.0053 51.3765 34.0697 51.7692 36.1507 51.7492Z" fill="white"/>
</g>
</g>
</g>
<defs>
<clipPath id="clip0_501_1898">
<rect width="72" height="72" fill="white"/>
</clipPath>
</defs>
</svg>
